<?xml version="1.0" encoding="UTF-8"?>
<svg width="408px" height="689px" viewBox="0 0 408 689" version="1.1" xmlns="http://www.w3.org/2000/svg" xmlns:xlink="http://www.w3.org/1999/xlink">
    <!-- Generator: Sketch 61.2 (89653) - https://sketch.com -->
    <title>Polygon</title>
    <desc>Created with Sketch.</desc>
    <g id="Page-1" stroke="none" stroke-width="1" fill="none" fill-rule="evenodd">
        <path d="M57.344264,-18.2919325 C145.437869,-16.030842 209.311949,18.4758312 248.966503,85.2280872 C283.126102,142.730443 293.709927,216.549797 280.71798,306.686149 L280.717981,306.686149 C276.637764,334.994133 284.873669,363.694415 303.343596,385.531354 C388.49468,486.20522 396.404701,558.102776 327.073659,601.224021 C250.156545,649.063513 120.597079,667.422632 -61.6047377,656.301378 L57.344264,-18.2919325 Z" id="Polygon" fill-opacity="0.08" fill="#000000" transform="translate(156.071109, 320.578002) rotate(-10.000000) translate(-156.071109, -320.578002) "></path>
        <path d="M52.8215117,14.7201621 C171.494564,34.7211867 245.430828,83.1872139 274.630303,160.118243 C295.826545,215.963379 297.83177,264.500005 280.645979,305.728121 L280.645979,305.728121 C267.834759,336.461794 271.161048,371.556067 289.518235,399.335551 C356.422656,500.58038 356.646333,571.869667 290.189265,613.203411 C213.272151,661.042902 101.937829,644.230324 -43.8136992,562.765677 L52.8215117,14.7201621 Z" id="Polygon" fill="#2b3658" transform="translate(148.025586, 327.236402) rotate(-10.000000) translate(-148.025586, -327.236402) "></path>
    </g>
</svg>