<?xml version="1.0" encoding="UTF-8"?>
<svg width="409px" height="689px" viewBox="0 0 409 689" version="1.1" xmlns="http://www.w3.org/2000/svg" xmlns:xlink="http://www.w3.org/1999/xlink">
    <!-- Generator: Sketch 61.2 (89653) - https://sketch.com -->
    <title>Polygon</title>
    <desc>Created with Sketch.</desc>
    <g id="Page-1" stroke="none" stroke-width="1" fill="none" fill-rule="evenodd">
        <path d="M153.344264,29.7080675 C241.437869,31.969158 305.311949,66.4758312 344.966503,133.228087 C379.126102,190.730443 389.709927,264.549797 376.71798,354.686149 L376.717981,354.686149 C372.637764,382.994133 380.873669,411.694415 399.343596,433.531354 C484.49468,534.20522 492.404701,606.102776 423.073659,649.224021 C346.156545,697.063513 216.597079,715.422632 34.3952623,704.301378 L153.344264,29.7080675 Z" id="Polygon" fill-opacity="0.08" fill="#000000" transform="translate(252.071109, 368.578002) rotate(170.000000) translate(-252.071109, -368.578002) "></path>
        <path d="M164.821512,62.7201621 C283.494564,82.7211867 357.430828,131.187214 386.630303,208.118243 C407.826545,263.963379 409.83177,312.500005 392.645979,353.728121 L392.645979,353.728121 C379.834759,384.461794 383.161048,419.556067 401.518235,447.335551 C468.422656,548.58038 468.646333,619.869667 402.189265,661.203411 C325.272151,709.042902 213.937829,692.230324 68.1863008,610.765677 L164.821512,62.7201621 Z" id="Polygon" fill="#FFDA12" transform="translate(260.025586, 375.236402) rotate(170.000000) translate(-260.025586, -375.236402) "></path>
    </g>
</svg>